<svg id="Path_5" data-name="Path 5" xmlns="http://www.w3.org/2000/svg" xmlns:xlink="http://www.w3.org/1999/xlink" width="140.765" height="115.861" viewBox="0 0 140.765 115.861">
  <defs>
    <clipPath id="clip-path">
      <path id="Mask" d="M0,41.739C0,58.39,10.89,63.449,25.133,66.132v42.244c0,3.1-2.8,5.612-.022,5.612,0,0,27.779-5.564,40.908-5.564,13.687,0,48.556,7.438,48.556,7.438,1.589-1.874,1.061-4.382,1.061-7.486V66.132c14.238-2.688,25.128-7.742,25.128-24.393,0-18.57-13.53-24.9-30.166-24.9H99.221C92.851,6.673,82.308,0,70.383,0S47.909,6.673,41.544,16.836H30.161C13.524,16.841,0,23.169,0,41.739Z" transform="translate(0)" fill="#ffe5be"/>
    </clipPath>
  </defs>
  <path id="Mask-2" data-name="Mask" d="M0,41.739C0,58.39,10.89,63.449,25.133,66.132v42.244c0,3.1-2.8,5.612-.022,5.612,0,0,27.779-5.564,40.908-5.564,13.687,0,48.556,7.438,48.556,7.438,1.589-1.874,1.061-4.382,1.061-7.486V66.132c14.238-2.688,25.128-7.742,25.128-24.393,0-18.57-13.53-24.9-30.166-24.9H99.221C92.851,6.673,82.308,0,70.383,0S47.909,6.673,41.544,16.836H30.161C13.524,16.841,0,23.169,0,41.739Z" fill="#edb96c"/>
  <g id="Path_5-2" data-name="Path 5" clip-path="url(#clip-path)">
    <path id="Path_6" data-name="Path 6" d="M82.975,108.423V0L0,21.968l12.419,97.483,37.5,6.365Z" transform="translate(-16.119 0)" fill="#f9d7a2"/>
  </g>
</svg>
